<svg width="15" height="12" viewBox="0 0 15 12" fill="none" xmlns="http://www.w3.org/2000/svg">
<path d="M9.66885 0.188289C9.4178 -0.0627628 9.01077 -0.0627628 8.75972 0.188289C8.50867 0.43934 8.50867 0.846375 8.75972 1.09743L12.8051 5.14286H0.642857C0.287817 5.14286 0 5.43067 0 5.78571C0 6.14075 0.287817 6.42857 0.642857 6.42857H12.8051L8.75972 10.474C8.50867 10.7251 8.50867 11.1321 8.75972 11.3831C9.01077 11.6342 9.4178 11.6342 9.66885 11.3831L14.8117 6.24028C14.9372 6.11476 15 5.95024 15 5.78571C15 5.69855 14.9827 5.61544 14.9512 5.53964C14.9198 5.46382 14.8733 5.39278 14.8117 5.33115L9.66885 0.188289Z" fill="var(--brand)"/>
</svg>
