<svg width="24" height="18" fill="none" xmlns="http://www.w3.org/2000/svg"><path fill="#D6002A" d="M0 0h24v18H0z"/><path fill="#046A38" d="M0 0h9.25v18H0z"/><path d="M9.273 12.955a3.969 3.969 0 1 0 0-7.938 3.969 3.969 0 0 0 0 7.938Z" fill="#FFE15A"/><path d="M10.597 7.662v1.766c0 .73-.594 1.324-1.324 1.324-.73 0-1.325-.594-1.325-1.324V7.662h2.649Zm.441-.883H7.507a.441.441 0 0 0-.441.442v2.207a2.207 2.207 0 0 0 4.413 0V7.22a.441.441 0 0 0-.441-.442Z" fill="#D6002A"/><path d="M10.597 7.662v1.766a1.326 1.326 0 0 1-2.648 0V7.662h2.648" fill="#fff"/><path d="M7.504 7.441a.22.22 0 1 0 0-.441.22.22 0 0 0 0 .441ZM11.034 7.441a.22.22 0 1 0 0-.441.22.22 0 0 0 0 .441ZM7.504 9.207a.22.22 0 1 0 0-.441.22.22 0 0 0 0 .44ZM11.034 9.207a.22.22 0 1 0 0-.441.22.22 0 0 0 0 .44ZM9.269 7.441a.22.22 0 1 0 0-.441.22.22 0 0 0 0 .441ZM10.594 10.834a.22.22 0 1 0 0-.441.22.22 0 0 0 0 .441ZM7.97 10.834a.22.22 0 1 0 0-.441.22.22 0 0 0 0 .441Z" fill="#FFE15A"/><path d="M9.557 8.874v.38a.285.285 0 0 1-.57 0v-.38h.57ZM9.557 7.973v.38a.285.285 0 0 1-.57 0v-.38h.57ZM9.557 9.785v.38a.285.285 0 0 1-.57 0v-.38h.57ZM10.325 8.874v.38a.285.285 0 0 1-.57 0v-.38h.57ZM8.79 8.874v.38a.285.285 0 0 1-.57 0v-.38h.57Z" fill="#41479B"/></svg>