<svg
  width="24"
  height="24"
  viewBox="0 0 24 24"
  fill="none"
  xmlns="http://www.w3.org/2000/svg"
>
  <path
    fillRule="evenodd"
    clipRule="evenodd"
    d="M14.82 3C14.4 1.84 13.3 1 12 1C10.7 1 9.6 1.84 9.18 3H5C3.9 3 3 3.9 3 5V21C3 22.1 3.9 23 5 23H19C20.1 23 21 22.1 21 21C21 21 21 14.9801 21 11.9702C21 11.6528 21 11.3353 21 11.0179C21 9.01194 21 5 21 5C21 3.9 20.1 3 19 3H14.82ZM10 13H7V15H10V13ZM7 19H12V17H7V19ZM7 9V11H13V9H7ZM12 3C12.55 3 13 3.45 13 4C13 4.55 12.55 5 12 5C11.45 5 11 4.55 11 4C11 3.45 11.45 3 12 3ZM5 21V5H7V6.00659H17V5H19V10.9917H21.0027V17.0004H19V21H5ZM16.99 18V15H24V13H16.99V10L13 14L16.99 18Z"
    fill="black"
  />
</svg>
