<svg width="40" height="40" viewBox="0 0 40 40" fill="none" xmlns="http://www.w3.org/2000/svg">
<path fill-rule="evenodd" clip-rule="evenodd" d="M19.8189 4C10.713 4 3.31891 11.111 3.31891 19.8899C3.31891 26.9131 8.04911 32.8633 14.6025 34.9702C15.423 35.1165 15.7268 34.6288 15.7268 34.1996C15.7268 33.8192 15.7167 32.8243 15.7066 31.4977C11.1182 32.4536 10.1458 29.3712 10.1458 29.3712C9.39625 27.5374 8.31246 27.0497 8.31246 27.0497C6.81338 26.0645 8.42388 26.084 8.42388 26.084C10.0749 26.201 10.9561 27.7227 10.9561 27.7227C12.4248 30.1515 14.8152 29.4492 15.7572 29.0396C15.9092 28.0153 16.3346 27.313 16.8005 26.9131C13.1338 26.5132 9.28484 25.1475 9.28484 19.0608C9.28484 17.3245 9.92296 15.9101 10.9865 14.7981C10.8143 14.3982 10.2471 12.779 11.1486 10.594C11.1486 10.594 12.5362 10.1648 15.6863 12.223C17.0031 11.8718 18.411 11.6962 19.8189 11.6865C21.2167 11.6962 22.6347 11.8718 23.9515 12.223C27.1016 10.1648 28.4893 10.594 28.4893 10.594C29.3907 12.779 28.8235 14.3982 28.6513 14.7981C29.7047 15.9101 30.3429 17.3245 30.3429 19.0608C30.3429 25.1671 26.4837 26.5034 22.8069 26.9033C23.3944 27.3911 23.9312 28.3665 23.9312 29.8492C23.9312 31.9756 23.911 33.6827 23.911 34.2094C23.911 34.6386 24.2047 35.1263 25.0454 34.9702C31.5988 32.8633 36.3189 26.9131 36.3189 19.8997C36.3189 11.111 28.9248 4 19.8189 4Z" fill="#181616"/>
</svg>