<svg width="120" height="20" viewBox="0 0 120 20" fill="none" xmlns="http://www.w3.org/2000/svg">
<path d="M5.98404 2.57576L10.4725 18.447C10.7794 19.5076 11.9303 20.1515 13.0045 19.8485C14.117 19.5455 14.7692 18.447 14.4623 17.3864L9.97381 1.51515C9.66691 0.454543 8.51601 -0.189396 7.44184 0.113634C6.32931 0.416665 5.67714 1.51515 5.98404 2.57576Z" fill="#F96216"/>
<path d="M14.3095 2.46221L3.0307 14.7349C2.26344 15.5683 2.34016 16.8183 3.22252 17.5758C4.06651 18.2955 5.37085 18.2198 6.13812 17.3864L17.3785 5.11372C18.1458 4.28039 18.0691 3.03039 17.1867 2.27281C16.3811 1.55312 15.0384 1.62887 14.3095 2.46221Z" fill="#B200F8"/>
<path d="M1.53432 9.31826L17.5701 14.4319C18.6443 14.7728 19.8335 14.2046 20.1788 13.144C20.5241 12.0834 19.9486 10.947 18.8745 10.6061L2.83866 5.4925C1.76449 5.15159 0.575236 5.71977 0.229968 6.78038C-0.115301 7.84098 0.460147 8.97735 1.53432 9.31826Z" fill="#00B4F2"/>
<path d="M31.6498 12.3107C31.6498 11.9319 31.4964 11.6289 31.2278 11.4016C30.9593 11.1743 30.614 10.9849 30.192 10.7955C29.77 10.6061 29.348 10.4167 28.8493 10.2274C28.389 10.038 27.9286 9.77281 27.5066 9.50765C27.0846 9.20462 26.7777 8.82584 26.4708 8.40917C26.2023 7.9925 26.0872 7.42432 26.0872 6.7425C26.0872 6.17432 26.2023 5.64402 26.3941 5.22735C26.5859 4.81068 26.8544 4.4319 27.2381 4.12887C27.6217 3.82584 28.0437 3.63644 28.5424 3.48493C29.0411 3.33341 29.5782 3.29553 30.192 3.29553C30.8826 3.29553 31.5731 3.37129 32.1869 3.48493C32.8007 3.59856 33.3378 3.78796 33.7215 4.01523L32.9926 5.98493C32.724 5.83341 32.3404 5.6819 31.8417 5.56826C31.3429 5.41674 30.7675 5.37887 30.192 5.37887C29.655 5.37887 29.1946 5.4925 28.8877 5.71977C28.5808 5.94705 28.4657 6.2122 28.4657 6.59099C28.4657 6.9319 28.5808 7.23493 28.8493 7.4622C29.1179 7.68947 29.4631 7.91674 29.8851 8.10614C30.3071 8.29553 30.7675 8.48493 31.2278 8.7122C31.7266 8.90159 32.1486 9.16674 32.5706 9.46977C32.9926 9.7728 33.3378 10.1137 33.6064 10.5683C33.8749 10.9849 34.0284 11.5152 34.0284 12.1592C34.0284 12.8031 33.9133 13.3713 33.6831 13.8258C33.4913 14.2804 33.1844 14.6592 32.7624 14.9622C32.3787 15.2652 31.9184 15.4925 31.3429 15.644C30.8059 15.7955 30.192 15.8713 29.5399 15.8713C28.6575 15.8713 27.8902 15.7955 27.2381 15.644C26.5859 15.4925 26.0872 15.341 25.7803 15.1516L26.5475 13.144C26.6626 13.2198 26.8544 13.2955 27.0463 13.3713C27.2381 13.447 27.4683 13.5228 27.7368 13.5986C28.0053 13.6743 28.2739 13.7122 28.5424 13.788C28.8493 13.8258 29.1179 13.8637 29.4248 13.8637C30.1153 13.8637 30.6524 13.7501 31.036 13.5228C31.458 13.1819 31.6498 12.8031 31.6498 12.3107Z" fill="#242427"/>
<path d="M43.2739 9.39398C43.1205 8.8258 42.8519 8.37126 42.545 7.95459C42.1997 7.53792 41.7777 7.23489 41.279 7.0455C40.7803 6.81823 40.1665 6.70459 39.476 6.70459C38.1716 6.70459 37.1742 7.08338 36.4453 7.87883C35.7164 8.67429 35.3711 9.77277 35.3711 11.2122C35.3711 11.894 35.4478 12.5 35.6013 13.0682C35.7931 13.6364 36.0233 14.091 36.3685 14.5076C36.7138 14.8864 37.1358 15.1894 37.6729 15.4167C38.1716 15.644 38.7854 15.7576 39.476 15.7576C40.7803 15.7576 41.7777 15.3788 42.4683 14.5834C43.1972 13.7879 43.5425 12.6894 43.5425 11.2122C43.5425 10.5682 43.4657 9.96217 43.2739 9.39398ZM40.7803 13.2576C40.4734 13.6743 40.0514 13.9016 39.476 13.9016C39.169 13.9016 38.9005 13.8258 38.6703 13.7122C38.4401 13.5607 38.2867 13.3713 38.1332 13.144C37.9798 12.9167 37.9031 12.6137 37.8263 12.3107C37.7496 12.0076 37.7112 11.6288 37.7112 11.25C37.7112 10.3031 37.8647 9.62126 38.1716 9.24247C38.4785 8.86368 38.9005 8.63641 39.476 8.63641C40.1281 8.63641 40.5501 8.86368 40.8187 9.35611C41.0872 9.84853 41.2023 10.4546 41.2023 11.25C41.2023 12.1591 41.0872 12.841 40.7803 13.2576Z" fill="#242427"/>
<path d="M47.532 6.9696V11.856C47.532 12.5378 47.6087 13.0681 47.7622 13.3711C47.954 13.6741 48.2609 13.8257 48.7596 13.8257C49.1816 13.8257 49.5269 13.712 49.8338 13.4469C50.1407 13.1817 50.3325 12.8787 50.4859 12.5378V6.9696H52.7494V12.9545C52.7494 13.409 52.7877 13.9014 52.8261 14.356C52.8645 14.8105 52.9412 15.2272 53.0179 15.5681H51.3299L50.9463 14.2802H50.8696C50.601 14.6969 50.2174 15.0757 49.757 15.3787C49.2967 15.6817 48.7212 15.7954 48.0691 15.7954C47.6471 15.7954 47.2251 15.7196 46.8798 15.606C46.5345 15.4923 46.2276 15.3029 45.9975 15.0378C45.7673 14.7726 45.5755 14.4317 45.4604 13.9772C45.3453 13.5226 45.2686 12.9545 45.2686 12.3105V6.9696H47.532Z" fill="#242427"/>
<path d="M59.9614 9.053C59.6161 8.93936 59.2709 8.86361 59.0023 8.86361C58.5803 8.86361 58.2734 8.97724 57.9665 9.20452C57.698 9.39391 57.5062 9.69694 57.4294 9.99997V15.5303H55.166V6.96967H56.9307L57.1993 8.10603H57.276C57.4678 7.68936 57.7363 7.34846 58.0816 7.12118C58.4269 6.89391 58.8105 6.78027 59.2709 6.78027C59.5778 6.78027 59.923 6.85603 60.3067 6.96967L59.9614 9.053Z" fill="#242427"/>
<path d="M67.6341 15C67.2888 15.2652 66.8668 15.4546 66.3681 15.5682C65.8693 15.7197 65.3706 15.7576 64.8719 15.7576C64.1814 15.7576 63.5675 15.644 63.1072 15.4167C62.6468 15.1894 62.2248 14.8864 61.9563 14.5076C61.6494 14.091 61.4192 13.6364 61.3041 13.0682C61.189 12.5 61.1123 11.894 61.1123 11.2122C61.1123 9.77277 61.4576 8.63641 62.1097 7.87883C62.7619 7.08338 63.721 6.70459 64.987 6.70459C65.6392 6.70459 66.1379 6.74247 66.5215 6.8561C66.9051 6.96974 67.2504 7.08338 67.5957 7.23489L67.0586 9.05307C66.7901 8.93944 66.5215 8.8258 66.253 8.75004C65.9844 8.67429 65.7159 8.63641 65.3706 8.63641C64.7568 8.63641 64.2581 8.8258 63.9512 9.24247C63.6443 9.65914 63.4525 10.3031 63.4525 11.1743C63.4525 11.5531 63.4908 11.894 63.5675 12.197C63.6443 12.5 63.7594 12.7652 63.9512 12.9925C64.1046 13.2197 64.3348 13.4091 64.565 13.5228C64.8335 13.6364 65.1404 13.7122 65.4857 13.7122C65.8693 13.7122 66.1762 13.6743 66.4448 13.5607C66.7133 13.447 66.9435 13.3334 67.1737 13.1819L67.6341 15Z" fill="#242427"/>
<path d="M75.8823 8.52277C75.6905 8.06823 75.422 7.72732 75.1151 7.46217C74.8082 7.19701 74.4245 7.00762 74.0025 6.89398C73.5805 6.78035 73.1585 6.70459 72.6982 6.70459C71.3938 6.70459 70.358 7.08338 69.6291 7.84095C68.9002 8.59853 68.5166 9.73489 68.5166 11.25C68.5166 12.6516 68.8235 13.75 69.4757 14.5834C70.1279 15.3788 71.1637 15.7955 72.5447 15.7955C73.2353 15.7955 73.8491 15.7197 74.4245 15.5303C75.0383 15.341 75.4987 15.1137 75.844 14.8107L75.1151 13.3334C74.9232 13.4849 74.6163 13.6364 74.2327 13.7879C73.8491 13.9394 73.4271 13.9773 72.9667 13.9773C72.1995 13.9773 71.6624 13.7879 71.3171 13.447C70.9718 13.0682 70.78 12.5379 70.78 11.8182H75.9974C76.0741 11.5152 76.1125 11.25 76.1125 10.947C76.1509 10.6819 76.1509 10.4167 76.1509 10.1894C76.1892 9.5455 76.0741 8.97732 75.8823 8.52277ZM74.0793 10.4546H70.8568C70.9335 9.88641 71.0869 9.39398 71.3555 9.05307C71.6624 8.71217 72.0844 8.52277 72.6598 8.52277C73.1585 8.52277 73.5422 8.67429 73.7724 9.0152C74.0409 9.3561 74.1176 9.81065 74.0793 10.4546Z" fill="#242427"/>
<path d="M84.0536 6.93179C83.4781 6.81815 82.8259 6.78027 82.0587 6.78027C80.6392 6.78027 79.5651 7.15906 78.8362 7.95452C78.1073 8.74997 77.7236 9.88633 77.7236 11.4394C77.7236 12.9166 77.9922 13.9772 78.5293 14.6591C79.0663 15.3409 79.9103 15.6818 81.0612 15.6818C82.097 15.6818 82.8259 15.4166 83.2096 14.8863H83.2863V15.4166C83.2863 16.0227 83.1328 16.4772 82.8643 16.8182C82.5958 17.1591 82.0587 17.3485 81.253 17.3485C80.716 17.3485 80.294 17.3106 79.9487 17.1969C79.6034 17.0833 79.2965 17.0075 79.028 16.8939L78.5676 18.6742C78.7978 18.7878 79.1814 18.9015 79.6418 19.053C80.1405 19.1666 80.7927 19.2424 81.6367 19.2424C82.8643 19.2424 83.8234 18.9394 84.5139 18.3333C85.2044 17.7651 85.5497 16.8182 85.5497 15.606V7.2727C85.1277 7.15906 84.6674 7.00755 84.0536 6.93179ZM83.2479 12.7272C83.1328 13.106 82.941 13.4091 82.7108 13.5985C82.4807 13.7878 82.1354 13.9015 81.7134 13.9015C81.1763 13.9015 80.7927 13.6742 80.5241 13.2575C80.2556 12.8409 80.1021 12.1969 80.1021 11.3636C80.1021 10.4166 80.2556 9.73482 80.6009 9.31815C80.9078 8.90149 81.3681 8.67421 81.9436 8.67421C82.4807 8.67421 82.941 8.74997 83.2863 8.90149V12.7272H83.2479Z" fill="#242427"/>
<path d="M92.2632 9.053C91.9179 8.93936 91.5726 8.86361 91.3041 8.86361C90.8821 8.86361 90.5752 8.97724 90.2683 9.20452C89.9998 9.39391 89.8079 9.69694 89.7312 9.99997V15.5303H87.4678V6.96967H89.2325L89.501 8.10603H89.5778C89.7696 7.68936 90.0381 7.34846 90.3834 7.12118C90.7287 6.89391 91.1123 6.78027 91.5726 6.78027C91.8796 6.78027 92.2248 6.85603 92.6085 6.96967L92.2632 9.053Z" fill="#242427"/>
<path d="M100.704 14.2804C100.665 13.8258 100.665 13.3334 100.665 12.841C100.665 12.3485 100.704 11.8561 100.742 11.3637C100.78 10.8334 100.78 10.341 100.78 9.84854C100.78 9.39399 100.742 8.97733 100.627 8.59854C100.55 8.21975 100.358 7.91672 100.128 7.65157C99.8979 7.38642 99.591 7.19703 99.169 7.04551C98.747 6.894 98.2483 6.81824 97.6728 6.81824C96.9823 6.81824 96.3301 6.89399 95.6779 7.00763C95.0257 7.12127 94.4887 7.27278 94.0283 7.50006L94.5654 9.16672C94.8723 9.01521 95.2943 8.90157 95.793 8.78793C96.2917 8.71218 96.7905 8.63642 97.2508 8.63642C97.8646 8.63642 98.2483 8.78793 98.4017 9.05309C98.5935 9.31824 98.6319 9.77278 98.5552 10.4167C97.7879 10.3788 97.0974 10.4167 96.4835 10.4925C95.8697 10.5682 95.3327 10.7198 94.8723 10.947C94.4503 11.1743 94.105 11.4394 93.8365 11.8182C93.6063 12.1591 93.4912 12.6137 93.4912 13.144C93.4912 13.5228 93.5679 13.8637 93.683 14.1667C93.7981 14.4698 93.9899 14.7349 94.2201 14.9622C94.4503 15.1894 94.7188 15.341 95.0641 15.4925C95.371 15.6061 95.7546 15.6819 96.1766 15.6819C96.8288 15.6819 97.3659 15.5682 97.7495 15.3031C98.1715 15.0379 98.4784 14.7349 98.7086 14.394H98.7853L99.169 15.5682H101.01C100.819 15.1516 100.742 14.7349 100.704 14.2804ZM98.2866 12.9167C98.1715 13.144 97.9797 13.3713 97.7112 13.5607C97.4426 13.7501 97.0974 13.8637 96.637 13.8637C96.2917 13.8637 96.0232 13.7879 95.8314 13.5985C95.6396 13.4091 95.5628 13.1819 95.5628 12.841C95.5628 12.6137 95.6396 12.4243 95.793 12.2728C95.9465 12.1213 96.1383 12.0076 96.4068 11.9319C96.6754 11.8561 96.9439 11.8182 97.2892 11.7804C97.6345 11.7425 97.9797 11.7804 98.325 11.7804V12.9167H98.2866Z" fill="#242427"/>
<path d="M109.642 7.76516C109.104 7.08334 108.299 6.74243 107.186 6.74243C106.611 6.74243 106.074 6.85607 105.69 7.04546C105.268 7.23486 104.923 7.57577 104.616 7.99243H104.539L104.271 6.9697H102.621V18.9773H104.885V15.4546C105.115 15.5682 105.345 15.6439 105.575 15.6818C105.805 15.7576 106.112 15.7576 106.457 15.7576C107.11 15.7576 107.647 15.6439 108.145 15.4167C108.644 15.1894 109.066 14.8864 109.411 14.4697C109.757 14.053 110.025 13.5606 110.179 12.9924C110.37 12.3864 110.447 11.7424 110.447 10.9849C110.486 9.50758 110.217 8.44698 109.642 7.76516ZM107.647 13.2197C107.34 13.6743 106.841 13.9015 106.189 13.9015C105.882 13.9015 105.613 13.8636 105.422 13.7879C105.23 13.7121 105.076 13.5985 104.885 13.4849V9.92425C105.038 9.50758 105.23 9.16667 105.46 8.9394C105.729 8.71213 106.074 8.59849 106.496 8.59849C107.071 8.59849 107.493 8.78789 107.723 9.20455C107.954 9.62122 108.107 10.1894 108.107 10.947C108.145 12.0076 107.992 12.7652 107.647 13.2197Z" fill="#242427"/>
<path d="M117.583 15.5682V10.6818C117.583 9.99998 117.468 9.46967 117.277 9.16664C117.085 8.86361 116.739 8.7121 116.202 8.7121C115.819 8.7121 115.473 8.82574 115.128 9.09089C114.821 9.35604 114.591 9.65907 114.514 10.0757V15.5682H112.251V3.52271H114.514V7.91664H114.591C114.86 7.53786 115.205 7.27271 115.627 7.04543C116.049 6.81816 116.548 6.70452 117.161 6.70452C117.583 6.70452 118.005 6.78028 118.312 6.89392C118.619 7.00755 118.926 7.19695 119.156 7.4621C119.387 7.72725 119.54 8.06816 119.655 8.56058C119.77 9.01513 119.847 9.54543 119.847 10.2273V15.5682H117.583Z" fill="#242427"/>
</svg>