<svg width="24" height="25" viewBox="0 0 24 25" fill="none" xmlns="http://www.w3.org/2000/svg">
<path fill-rule="evenodd" clip-rule="evenodd" d="M6 2.08081C4.48122 2.08081 3.25 3.31203 3.25 4.83081V20.8308C3.25 22.3496 4.48122 23.5808 6 23.5808H18C19.5188 23.5808 20.75 22.3496 20.75 20.8308V9.83081C20.75 9.62781 20.6693 9.44364 20.5383 9.30861C20.5357 9.30588 20.533 9.30317 20.5303 9.30048L13.5307 2.30085C13.3901 2.1602 13.1989 2.08081 13 2.08081M12.25 3.58081H6C5.30964 3.58081 4.75 4.14045 4.75 4.83081V20.8308C4.75 21.5212 5.30964 22.0808 6 22.0808H18C18.6904 22.0808 19.25 21.5212 19.25 20.8308V10.5808H13C12.5858 10.5808 12.25 10.245 12.25 9.83081V3.58081ZM18.1893 9.08081L13.75 4.64147V9.08081H18.1893Z" fill="black"/>
</svg>