<svg width="24" height="24" viewBox="0 0 24 24" fill="none" xmlns="http://www.w3.org/2000/svg">
<path fill-rule="evenodd" clip-rule="evenodd" d="M11.9671 1.62256C6.09549 1.62256 1.33301 6.38505 1.33301 12.2566C1.33301 16.9539 4.39927 20.9335 8.5746 22.3687C9.09651 22.434 9.29223 22.1078 9.29223 21.8468C9.29223 21.5859 9.29223 20.9335 9.29223 20.0201C6.35645 20.6725 5.70406 18.5848 5.70406 18.5848C5.24738 17.3453 4.52975 17.0191 4.52975 17.0191C3.55115 16.3667 4.59498 16.3667 4.59498 16.3667C5.63882 16.4319 6.22597 17.4758 6.22597 17.4758C7.20457 19.1068 8.70508 18.6501 9.29223 18.3891C9.35747 17.6715 9.68367 17.2148 9.94463 16.9539C7.596 16.6929 5.1169 15.7795 5.1169 11.6695C5.1169 10.4951 5.50834 9.58178 6.22597 8.79891C6.16073 8.60319 5.7693 7.49412 6.35645 6.05885C6.35645 6.05885 7.26981 5.79789 9.29223 7.16792C10.1403 6.90696 11.0537 6.84172 11.9671 6.84172C12.8804 6.84172 13.7938 6.9722 14.6419 7.16792C16.6643 5.79789 17.5777 6.05885 17.5777 6.05885C18.1648 7.49412 17.7734 8.60319 17.7081 8.86415C18.3605 9.58179 18.8172 10.5604 18.8172 11.7347C18.8172 15.8448 16.3381 16.6929 13.9895 16.9539C14.3809 17.2801 14.7071 17.9324 14.7071 18.911C14.7071 20.3463 14.7071 21.4554 14.7071 21.8468C14.7071 22.1078 14.9028 22.434 15.4247 22.3687C19.6653 20.9335 22.6663 16.9539 22.6663 12.2566C22.6011 6.38505 17.8386 1.62256 11.9671 1.62256Z" fill="black"/>
</svg>