<svg width="64" height="64" fill="none" xmlns="http://www.w3.org/2000/svg"><path d="M0 5.674 9.828 0h4L0 7.984v-2.31ZM0 17.553v-2.31L26.402 0h4L0 17.553ZM0 27.122v-2.31L42.977 0h4L0 27.122ZM0 36.691v-2.31l21-12.123v2.309L0 36.691ZM0 46.26v-2.309l21-12.124v2.31L0 46.26ZM0 55.83v-2.31l21-12.124v2.31L0 55.83ZM2.423 64H0v-.91L33.064 44h4L2.424 64ZM18.997 64h-4l34.641-20h4l-34.64 20ZM35.572 64h-4L64 45.278v2.309L35.572 64ZM52.146 64h-4L64 54.847v2.31L52.146 64ZM64 18.88 62.059 20h-4L64 16.57v2.31ZM64 7v2.31L45.485 20h-4L64 7ZM59.551 0h4l-34.64 20h-4L59.55 0Z" fill="#C1C3C8"/></svg>
